# xmcd
#
# Track frame offsets:
#	150
#	12357
#	24957
#	40257
#	50951
#	62801
#	75895
#	88494
#	100517
#	111767
#	123467
#	141917
#	155724
#	165922
#
# Disc length: 2419 seconds
#
# Revision: 1
# Processed by: cddbd v1.5.2PL0 Copyright (c) Steve Scherf et al.
# Submitted via: audiograbber 1.83.01
#
DISCID=b109710e
DTITLE=Dale Black - Take It Easy On My Heart
DYEAR=2006
DGENRE=Country
TTITLE0=After The Loving
TTITLE1=Come Back To Me
TTITLE2=Take It Easy On My Heart
TTITLE3=His And Hers
TTITLE4=I Miss You Already
TTITLE5=I´ll Turn To Another Woman
TTITLE6=Linda On My Mind
TTITLE7=Will It Be Easy
TTITLE8=Sweet Dreams
TTITLE9=Sweet Peace Of Mind
TTITLE10=Don´t Close Your Eyes
TTITLE11=Unforgetable
TTITLE12=Walk Through This World
TTITLE13=Let Me Down Easy
EXTD=
EXTT0=
EXTT1=
EXTT2=
EXTT3=
EXTT4=
EXTT5=
EXTT6=
EXTT7=
EXTT8=
EXTT9=
EXTT10=
EXTT11=
EXTT12=
EXTT13=
PLAYORDER=
